<?xml version="1.0" encoding="UTF-8"?>
<svg width="77px" height="77px" viewBox="0 0 77 77" version="1.1" xmlns="http://www.w3.org/2000/svg" xmlns:xlink="http://www.w3.org/1999/xlink">
    <!-- Generator: Sketch 52.5 (67469) - http://www.bohemiancoding.com/sketch -->
    <title>Elm logo</title>
    <desc>Created with Sketch.</desc>
    <g id="Page-1" stroke="none" stroke-width="1" fill="none" fill-rule="evenodd">
        <g id="2" transform="translate(-263.000000, -652.000000)" fill-rule="nonzero">
            <g id="Elm-logo" transform="translate(262.804996, 652.258423)">
                <polyline id="Shape" fill="#1E1656" points="32.7013089 42.2023119 24.578852 37.5183879 24.578852 28.1348746 32.7013089 32.8266312 32.7013089 42.2023119"></polyline>
                <polyline id="Shape" fill="#1E1656" points="32.7013089 14.0674373 24.578852 18.7591939 24.578852 28.1348746 32.7013089 23.4509506 32.7013089 14.0674373"></polyline>
                <polyline id="Shape" fill="#1E1656" points="40.8237657 0 32.7013089 4.69175665 32.7013089 14.0674373 40.8237657 9.37568065 40.8237657 0"></polyline>
                <polyline id="Shape" fill="#1E1656" points="16.4563952 14.0674373 8.33393836 18.7591939 8.33393836 28.1348746 16.4563952 23.4509506 16.4563952 14.0674373"></polyline>
                <polyline id="Shape" fill="#722EA5" points="24.578852 28.1348746 16.4563952 23.4509506 16.4563952 14.0674373 24.578852 18.7591939 24.578852 28.1348746"></polyline>
                <polyline id="Shape" fill="#2A6EBB" points="57.0686794 28.1348746 48.9462225 23.4509506 48.9462225 14.0674373 57.0686794 18.7591939 57.0686794 28.1348746"></polyline>
                <polygon id="Shape" fill="#952D98" points="0.211481518 42.2023119 0.211481518 42.2023119 8.33393836 46.8940685 16.4563952 42.2023119 8.33393836 37.5183879"></polygon>
                <polygon id="Shape" fill="#952D98" points="16.4563952 42.2023119 16.4563952 42.2023119 24.578852 46.8940685 32.7013089 42.2023119 24.578852 37.5183879"></polygon>
                <polygon id="Shape" fill="#44C8F5" points="24.578852 28.1348746 24.578852 28.1348746 32.7013089 32.8266312 40.8237657 28.1348746 32.7013089 23.4509506"></polygon>
                <polygon id="Shape" fill="#44C8F5" points="40.8237657 28.1348746 40.8237657 28.1348746 48.9462225 32.8266312 57.0686794 28.1348746 48.9462225 23.4509506"></polygon>
                <path d="M32.7013089,48.8365655 C32.7013089,50.4030952 32.7013089,58.6117112 32.7013089,60.8205182 L24.5240235,60.8205182 C24.4509182,60.8194707 24.3804232,60.8476687 24.3282073,60.8988447 L21.9079188,65.0109853 C21.8374249,65.1441403 21.813927,65.2068015 21.8530902,65.3007933 C21.8949122,65.401908 21.9943286,65.46715 22.103735,65.4652789 L50.0662913,65.4652789 C51.293872,65.444039 52.4458105,64.8680697 53.1993509,63.8987492 C53.9514085,64.8698762 55.1042742,65.446309 56.3324104,65.4652789 L76.3369955,65.4652789 C76.4810692,65.4653412 76.5990681,65.3508129 76.6033056,65.2068015 L76.6033056,61.0946609 C76.6011078,61.0268233 76.573091,60.9623848 76.5249791,60.91451 C76.4742632,60.865895 76.4072262,60.8379629 76.3369955,60.8361835 L65.6454298,60.8361835 L65.6454298,54.3350849 C65.6366135,53.7570447 66.0936512,53.2790739 66.6715068,53.262012 L73.8148826,53.262012 C73.8879879,53.2630595 73.9584829,53.2348615 74.0106988,53.1836856 L76.4544852,49.0402143 C76.5249791,48.9070593 76.5563097,48.8443981 76.5093138,48.7504063 C76.4674918,48.6492916 76.3680754,48.5840496 76.258669,48.5859207 L65.4496136,48.5859207 C63.0569674,48.5409657 61.0635697,50.4093419 60.9536732,52.7998858 L60.9536732,60.8283508 L56.9276917,60.8283508 L56.9276917,40.416468 C56.9263828,40.3099107 56.8616774,40.2143934 56.7632061,40.1736558 C56.6613816,40.1344926 56.6065531,40.1736558 56.4733981,40.2284844 L52.3612574,42.6566055 C52.3100815,42.7088215 52.2818835,42.7793164 52.2829309,42.8524217 L52.2829309,60.8675141 L48.2569494,60.8675141 L48.2569494,52.7528899 C48.1554245,50.3839755 46.1866515,48.5263149 43.8158376,48.5624227 L32.9676189,48.5624227 C32.8956108,48.5623916 32.8266592,48.5915218 32.776485,48.6431717 C32.7263108,48.6948217 32.699191,48.7645885 32.7013089,48.8365655 Z M43.6670173,60.8205182 L38.4348078,60.8205182 C37.8641975,60.8206612 37.3980077,60.3649085 37.3852329,59.7944412 L37.3852329,53.262012 L42.6487729,53.262012 C43.2161661,53.2789566 43.6672702,53.7439409 43.6670172,54.311587 L43.6670173,60.8205182 Z" id="Shape" fill="#808285"></path>
                <path d="M58.3532338,68.653167 C58.3508662,68.6213398 58.362482,68.5900603 58.3850494,68.5674929 C58.4076169,68.5449255 58.4388963,68.5333097 58.4707235,68.5356773 L63.4601208,68.5356773 C63.491948,68.5333097 63.5232275,68.5449255 63.5457949,68.5674929 C63.5683623,68.5900603 63.5799781,68.6213398 63.5776106,68.653167 L63.5776106,69.8750602 C63.5799781,69.9068874 63.5683623,69.9381669 63.5457949,69.9607343 C63.5232275,69.9833017 63.491948,69.9949175 63.4601208,69.9925499 L60.1155798,69.9925499 C60.0961978,69.9899287 60.0767035,69.9965078 60.0628737,70.0103377 C60.0490438,70.0241676 60.0424647,70.0436618 60.0450859,70.0630438 L60.0450859,71.6295735 C60.0424647,71.6489555 60.0490438,71.6684498 60.0628737,71.6822797 C60.0767035,71.6961095 60.0961978,71.7026886 60.1155798,71.7000674 L62.9040028,71.7000674 C62.9358299,71.6976998 62.9671094,71.7093156 62.9896768,71.7318831 C63.0122442,71.7544505 63.0238601,71.7857299 63.0214925,71.8175571 L63.0214925,73.0002871 C63.0238601,73.0321143 63.0122442,73.0633938 62.9896768,73.0859612 C62.9671094,73.1085286 62.9358299,73.1201444 62.9040028,73.1177768 L60.1155798,73.1177768 C60.0961978,73.1151556 60.0767035,73.1217347 60.0628737,73.1355646 C60.0490438,73.1493944 60.0424647,73.1688887 60.0450859,73.1882707 L60.0450859,74.8017963 C60.0424647,74.8211783 60.0490438,74.8406726 60.0628737,74.8545024 C60.0767035,74.8683323 60.0961978,74.8749114 60.1155798,74.8722902 L63.4679535,74.8722902 C63.4997807,74.8699226 63.5310601,74.8815384 63.5536275,74.9041058 C63.5761949,74.9266732 63.5878108,74.9579527 63.5854432,74.9897799 L63.5854432,76.2116731 C63.5878108,76.2435003 63.5761949,76.2747798 63.5536275,76.2973472 C63.5310601,76.3199146 63.4997807,76.3315304 63.4679535,76.3291628 L58.4707235,76.3291628 C58.4388963,76.3315304 58.4076169,76.3199146 58.3850494,76.2973472 C58.362482,76.2747798 58.3508662,76.2435003 58.3532338,76.2116731 L58.3532338,68.653167 Z" id="Shape" fill="#808285"></path>
                <path d="M66.4913559,76.391824 C65.2694627,76.391824 64.7760058,75.8513713 64.7760058,74.6294781 L64.7760058,68.653167 C64.7736382,68.6213398 64.7852541,68.5900603 64.8078215,68.5674929 C64.8303889,68.5449255 64.8616684,68.5333097 64.8934956,68.5356773 L66.2642091,68.5356773 C66.2960363,68.5333097 66.3273158,68.5449255 66.3498832,68.5674929 C66.3724506,68.5900603 66.3840664,68.6213398 66.3816988,68.653167 L66.3816988,74.496323 C66.3816988,74.8722902 66.5305192,75.0211105 66.8594904,75.0211105 L67.1023025,75.0211105 C67.1341297,75.0187429 67.1654092,75.0303588 67.1879766,75.0529262 C67.210544,75.0754936 67.2221599,75.106773 67.2197923,75.1386002 L67.2197923,76.2743343 C67.2221599,76.3061615 67.210544,76.337441 67.1879766,76.3600084 C67.1654092,76.3825758 67.1341297,76.3941916 67.1023025,76.391824 L66.4913559,76.391824 Z" id="Shape" fill="#808285"></path>
                <path d="M75.0446084,76.3213302 C75.0127812,76.3236978 74.9815018,76.3120819 74.9589344,76.2895145 C74.936367,76.2669471 74.9247511,76.2356677 74.9271187,76.2038405 L74.9271187,73.023785 C74.9271187,72.4206711 74.6294781,72.0133733 74.0576947,72.0133733 C73.4859113,72.0133733 73.1961033,72.4128384 73.1961033,73.023785 L73.1961033,76.2038405 C73.1984709,76.2356677 73.1868551,76.2669471 73.1642877,76.2895145 C73.1417202,76.3120819 73.1104408,76.3236978 73.0786136,76.3213302 L71.7079,76.3213302 C71.6760728,76.3236978 71.6447934,76.3120819 71.622226,76.2895145 C71.5996586,76.2669471 71.5880427,76.2356677 71.5904103,76.2038405 L71.5904103,73.023785 C71.5904103,72.4206711 71.3006023,72.0133733 70.7288189,72.0133733 C70.1570356,72.0133733 69.8593949,72.4128384 69.8593949,73.023785 L69.8593949,76.2038405 C69.8617625,76.2356677 69.8501467,76.2669471 69.8275793,76.2895145 C69.8050118,76.3120819 69.7737324,76.3236978 69.7419052,76.3213302 L68.3711916,76.3213302 C68.3393644,76.3236978 68.308085,76.3120819 68.2855176,76.2895145 C68.2629502,76.2669471 68.2513343,76.2356677 68.2537019,76.2038405 L68.2537019,70.9011372 C68.2513343,70.86931 68.2629502,70.8380305 68.2855176,70.8154631 C68.308085,70.7928957 68.3393644,70.7812799 68.3711916,70.7836475 L69.7419052,70.7836475 C69.7737324,70.7812799 69.8050118,70.7928957 69.8275793,70.8154631 C69.8501467,70.8380305 69.8617625,70.86931 69.8593949,70.9011372 L69.8593949,71.2771044 C70.2369624,70.862633 70.7757649,70.6323391 71.3362654,70.6458632 C71.896766,70.6593874 72.4238344,70.9153993 72.7809729,71.3475982 C73.232729,70.8750345 73.8667344,70.6208611 74.519821,70.6504924 C75.0828403,70.5890588 75.6431046,70.7880105 76.0412875,71.1907702 C76.4394703,71.5935298 76.6320062,72.1560312 76.5641423,72.7183117 L76.5641423,76.2116731 C76.5665099,76.2435003 76.5548941,76.2747798 76.5323266,76.2973472 C76.5097592,76.3199146 76.4784798,76.3315304 76.4466526,76.3291628 L75.0446084,76.3213302 Z" id="Shape" fill="#808285"></path>
            </g>
        </g>
    </g>
</svg>